Coordinates
version=1
nRows=10
nColumns=46
inDegrees=yes

Units are S.I. units (second, meters, Newtons, ...)
Angles are in degrees.

endheader
time	pelvis_tilt	pelvis_list	pelvis_rotation	pelvis_tx	pelvis_ty	pelvis_tz	bb_angle	bb_tx	bb_ty	bb_tz	hip_flexion_r	hip_adduction_r	hip_rotation_r	knee_angle_r	knee_angle_r_beta	ankle_angle_r	subtalar_angle_r	mtp_angle_r	crank_angle_r	hip_flexion_l	hip_adduction_l	hip_rotation_l	knee_angle_l	knee_angle_l_beta	ankle_angle_l	subtalar_angle_l	mtp_angle_l	crank_angle_l	lumbar_extension	lumbar_bending	lumbar_rotation	arm_flex_r	arm_add_r	arm_rot_r	elbow_flex_r	pro_sup_r	wrist_flex_r	wrist_dev_r	arm_flex_l	arm_add_l	arm_rot_l	elbow_flex_l	pro_sup_l	wrist_flex_l	wrist_dev_l
      0.00000000	    -26.92810056	     -6.39636330	     -3.79110685	      0.17286321	      1.10510851	     -0.23471306	      0.00000000	      0.50000000	      0.00000000	      0.25000000	     90.26802590	      2.12578353	     -0.25401243	     88.06240109	      1.53697885	     22.72806717	     -6.43736389	      0.00000000	      0.00000000	     39.81199711	    -10.33086377	      2.91483555	     34.23377576	      0.59749210	     24.74768483	     -3.61894735	      0.00000000	      0.00000000	    -42.78331096	      3.60957039	      5.82932650	     89.54532735	     -3.98128937	     52.32996861	     24.73956782	     26.21512987	      0.00000000	      0.00000000	     89.67639042	     -5.36516655	     48.35425397	     22.60691533	     24.66804531	      0.00000000	      0.00000000
      0.00500000	    -26.95333811	     -6.48020410	     -3.80132199	      0.17294135	      1.10510094	     -0.23470298	      0.00000000	      0.50000000	      0.00000000	      0.25000000	     90.34529109	      2.13468117	     -0.34248288	     88.20117226	      1.53940086	     22.69340256	     -6.44903276	      0.00000000	      0.00000000	     39.58700859	    -10.42751073	      2.85287012	     33.73316954	      0.58875488	     24.83680837	     -3.46125747	      0.00000000	      0.00000000	    -42.76140650	      3.68405027	      5.93204457	     89.54032259	     -4.15880722	     52.49330968	     24.70458723	     27.60714963	      0.00000000	      0.00000000	     89.67951311	     -5.34094855	     48.63777148	     22.33794161	     25.51646190	      0.00000000	      0.00000000
      0.01000000	    -27.03037119	     -6.56199900	     -3.82070641	      0.17286398	      1.10499606	     -0.23464653	      0.00000000	      0.50000000	      0.00000000	      0.25000000	     90.49407309	      2.19977157	     -0.39769962	     88.33954742	      1.54181596	     22.58449280	     -6.58005946	      0.00000000	      0.00000000	     39.46039800	    -10.53290352	      2.79463721	     33.28996751	      0.58101954	     24.89171026	     -3.29760429	      0.00000000	      0.00000000	    -42.69010016	      3.75030747	      6.00780070	     89.54116286	     -4.19111878	     52.47091077	     24.51303770	     28.73370740	      0.00000000	      0.00000000	     89.67912501	     -5.35177826	     48.62210852	     22.22917415	     26.23684551	      0.00000000	      0.00000000
      0.01500000	    -26.78560890	     -6.44665746	     -3.60296757	      0.17294119	      1.10553457	     -0.23544214	      0.00000000	      0.50000000	      0.00000000	      0.25000000	     90.29973469	      1.91938901	     -0.23955101	     88.55741170	      1.54561841	     22.70717184	     -6.39638693	      0.00000000	      0.00000000	     39.10649253	    -10.30422414	      3.01149729	     33.08091918	      0.57737096	     24.93275051	     -3.58992349	      0.00000000	      0.00000000	    -43.02150336	      3.85998559	      5.75321495	     89.55225074	     -3.93519614	     51.53320023	     24.50749397	     29.19117462	      0.00000000	      0.00000000	     89.66821666	     -5.84166728	     48.17979260	     22.91908827	     26.83258531	      0.00000000	      0.00000000
      0.02000000	    -26.75828386	     -6.43269565	     -3.24841060	      0.17289180	      1.10551453	     -0.23647363	      0.00000000	      0.50000000	      0.00000000	      0.25000000	     90.33603536	      1.44278813	     -0.18119583	     88.69575464	      1.54803295	     22.72563698	     -6.06919966	      0.00000000	      0.00000000	     38.59610427	     -9.58049562	      4.50302299	     32.04354496	      0.55926536	     24.34268227	     -5.01213865	      0.00000000	      0.00000000	    -43.02810076	      4.17769857	      5.46969547	     89.54960925	     -3.65920864	     50.74300068	     24.20834090	     29.57588609	      0.00000000	      0.00000000	     89.68705417	     -5.14616430	     47.56323340	     21.86835589	     27.04561876	      0.00000000	      0.00000000
      0.02500000	    -26.80969341	     -6.71838432	     -3.07861385	      0.17275668	      1.10586774	     -0.23677810	      0.00000000	      0.50000000	      0.00000000	      0.25000000	     90.34606720	      1.34358891	     -0.46323200	     88.71508788	      1.54837038	     22.65455590	     -6.20076104	      0.00000000	      0.00000000	     38.22864425	     -9.46087934	      5.82148745	     31.10493404	      0.54288351	     23.92168053	     -6.27386421	      0.00000000	      0.00000000	    -43.06080932	      4.51851901	      5.61334141	     89.56739627	     -3.40927196	     49.87917856	     23.87312329	     29.81691925	      0.00000000	      0.00000000	     89.67860010	     -5.22731896	     47.29188397	     22.16661362	     27.38936613	      0.00000000	      0.00000000
      0.03000000	    -26.82132731	     -6.76726718	     -3.08303938	      0.17277387	      1.10586893	     -0.23670170	      0.00000000	      0.50000000	      0.00000000	      0.25000000	     90.40329380	      1.36872958	     -0.49983544	     88.81748603	      1.55015756	     22.59539056	     -6.28456781	      0.00000000	      0.00000000	     38.12176572	     -9.63377419	      5.43355215	     30.80872790	      0.53771374	     24.07673053	     -5.57530643	      0.00000000	      0.00000000	    -43.05464017	      4.54791622	      5.63953340	     89.56796461	     -3.43190750	     49.87013917	     23.70085282	     31.02620016	      0.00000000	      0.00000000	     89.67803222	     -5.60297438	     48.18589893	     22.32315434	     28.43710680	      0.00000000	      0.00000000
      0.03500000	    -26.89229886	     -6.81568379	     -2.96477201	      0.17256120	      1.10580170	     -0.23691979	      0.00000000	      0.50000000	      0.00000000	      0.25000000	     90.51597575	      1.21278324	     -0.54583345	     88.93884514	      1.55227568	     22.62512140	     -6.27267970	      0.00000000	      0.00000000	     38.12015479	     -9.71124023	      5.01741462	     30.47413005	      0.53187391	     24.09027308	     -5.05989405	      0.00000000	      0.00000000	    -42.99398331	      4.68055680	      5.56655274	     89.56615101	     -3.45083133	     50.04941832	     24.04846855	     29.53915478	      0.00000000	      0.00000000	     89.67766720	     -5.76556682	     48.66889772	     22.76368461	     26.77774440	      0.00000000	      0.00000000
      0.04000000	    -26.82116768	     -6.78526679	     -3.01329893	      0.17280851	      1.10594555	     -0.23682899	      0.00000000	      0.50000000	      0.00000000	      0.25000000	     90.47346666	      1.22322907	     -0.53106022	     89.07187033	      1.55459741	     22.74591777	     -6.08498558	      0.00000000	      0.00000000	     37.73172901	     -9.61847887	      5.37838092	     29.93399065	      0.52244670	     23.93884056	     -5.54264322	      0.00000000	      0.00000000	    -43.08313818	      4.61605100	      5.57219827	     89.56256304	     -3.25664922	     49.32667125	     23.87120198	     29.90453128	      0.00000000	      0.00000000	     89.67429704	     -5.65479718	     47.94596398	     22.68508515	     27.19293125	      0.00000000	      0.00000000
      0.04500000	    -26.84019498	     -6.75669707	     -2.95659184	      0.17282191	      1.10599225	     -0.23702211	      0.00000000	      0.50000000	      0.00000000	      0.25000000	     90.52283221	      1.10598790	     -0.51241578	     89.19353777	      1.55672091	     22.87182792	     -5.95382493	      0.00000000	      0.00000000	     37.57731111	     -9.56338303	      5.32941310	     29.52166225	      0.51525021	     23.85764422	     -5.44907920	      0.00000000	      0.00000000	    -43.07185738	      4.65570142	      5.48927358	     89.55429143	     -2.87305762	     48.06206297	     23.42806000	     31.05463542	      0.00000000	      0.00000000	     89.67147015	     -5.34498367	     46.59338388	     22.23137873	     28.45282644	      0.00000000	      0.00000000
